{
	"asset":{
		"generator":"Khronos glTF Blender I/O v4.0.44",
		"version":"2.0"
	},
	"scene":0,
	"scenes":[
		{
			"name":"Scene",
			"nodes":[
				0
			]
		}
	],
	"nodes":[
		{
			"mesh":0,
			"name":"Q1:NO",
			"rotation":[
				0,
				0.003551111789420247,
				0,
				0.9999936819076538
			],
			"scale":[
				0.31274864077568054,
				0.17872756719589233,
				0.23940959572792053
			],
			"translation":[
				-11.619487762451172,
				0.48037099838256836,
				-93.02511596679688
			]
		}
	],
	"materials":[
		{
			"doubleSided":true,
			"name":"\u6750\u8cea.008",
			"pbrMetallicRoughness":{
				"baseColorTexture":{
					"index":0
				},
				"metallicFactor":0,
				"roughnessFactor":0.5
			}
		}
	],
	"meshes":[
		{
			"name":"\u5e73\u9762.003",
			"primitives":[
				{
					"attributes":{
						"POSITION":0,
						"NORMAL":1,
						"TEXCOORD_0":2
					},
					"indices":3,
					"material":0
				}
			]
		}
	],
	"textures":[
		{
			"sampler":0,
			"source":0
		}
	],
	"images":[
		{
			"mimeType":"image/png",
			"name":"\u7121\u8996",
			"uri":"%E7%84%A1%E8%A6%96.png"
		}
	],
	"accessors":[
		{
			"bufferView":0,
			"componentType":5126,
			"count":49,
			"max":[
				14.565500259399414,
				14.565505027770996,
				3.25402470480185e-06
			],
			"min":[
				-14.565505027770996,
				-14.565500259399414,
				-2.9918737709522247e-06
			],
			"type":"VEC3"
		},
		{
			"bufferView":1,
			"componentType":5126,
			"count":49,
			"type":"VEC3"
		},
		{
			"bufferView":2,
			"componentType":5126,
			"count":49,
			"type":"VEC2"
		},
		{
			"bufferView":3,
			"componentType":5123,
			"count":216,
			"type":"SCALAR"
		}
	],
	"bufferViews":[
		{
			"buffer":0,
			"byteLength":588,
			"byteOffset":0,
			"target":34962
		},
		{
			"buffer":0,
			"byteLength":588,
			"byteOffset":588,
			"target":34962
		},
		{
			"buffer":0,
			"byteLength":392,
			"byteOffset":1176,
			"target":34962
		},
		{
			"buffer":0,
			"byteLength":432,
			"byteOffset":1568,
			"target":34963
		}
	],
	"samplers":[
		{
			"magFilter":9729,
			"minFilter":9987
		}
	],
	"buffers":[
		{
			"byteLength":2000,
			"uri":"Q1.NO.bin"
		}
	]
}
